<svg width="63" height="29" viewBox="0 0 63 29" fill="none" xmlns="http://www.w3.org/2000/svg">
<path d="M32.8445 17.5322H30.0812C28.2786 17.5322 26.8174 18.9935 26.8174 20.796V22.738C26.8174 24.5405 28.2786 26.0018 30.0812 26.0018H32.8445C34.6471 26.0018 36.1083 24.5405 36.1083 22.738V20.796C36.1083 18.9935 34.6471 17.5322 32.8445 17.5322Z" fill="white"/>
<path d="M32.8445 0H30.0812C28.2786 0 26.8174 1.46125 26.8174 3.26379V5.20575C26.8174 7.0083 28.2786 8.46954 30.0812 8.46954H32.8445C34.6471 8.46954 36.1083 7.0083 36.1083 5.20575V3.26379C36.1083 1.46125 34.6471 0 32.8445 0Z" fill="white"/>
<path d="M17.4014 24.718C17.1784 24.854 16.9119 24.8975 16.6562 24.8322C15.057 24.4188 13.3435 23.9075 11.5157 23.2928C9.53571 22.6292 7.55567 21.9111 5.5702 21.1387C3.83495 20.4642 2.19762 19.7951 0.652757 19.126C0.255662 18.952 0 18.5603 0 18.1252V14.3555C1.87668 14.8559 3.86215 15.3401 5.96186 15.8133C8.06156 16.2866 10.145 16.7326 12.2066 17.146C13.9092 17.4887 15.4867 17.7716 16.95 17.9892C17.4776 18.0708 17.8693 18.5277 17.8693 19.0662V23.8803C17.8693 24.2176 17.6897 24.5331 17.4014 24.7126V24.718Z" fill="white"/>
<path d="M45.5249 18.5278C45.7479 18.3919 46.0144 18.3483 46.2701 18.4136C47.8694 18.827 49.5829 19.3384 51.4106 19.953C53.3906 20.6167 55.3706 21.3347 57.3561 22.1071C59.0914 22.7817 60.7287 23.4507 62.2736 24.1198C62.6707 24.2939 62.9263 24.6855 62.9263 25.1207V28.8904C61.0496 28.3899 59.0642 27.9058 56.9645 27.4326C54.8648 26.9593 52.7814 26.5133 50.7197 26.0999C49.0171 25.7572 47.4396 25.4743 45.9818 25.2567C45.4542 25.1751 45.0625 24.7182 45.0625 24.1796V19.3656C45.0625 19.0283 45.242 18.7128 45.5303 18.5333L45.5249 18.5278Z" fill="white"/>
</svg>
